<?xml version="1.0" encoding="UTF-8"?>
<svg id="Layer_1" data-name="Layer 1" xmlns="http://www.w3.org/2000/svg" viewBox="0 0 500.79 500">
  <defs>
    <style>
      .cls-1 {
        fill: #39b54a;
      }
    </style>
  </defs>
  <path class="cls-1" d="M250.4,76.97c-95.57,0-173.04,77.47-173.04,173.03s77.47,173.03,173.04,173.03,173.03-77.47,173.03-173.03-77.47-173.03-173.03-173.03ZM220.11,256.3v82.82h-65.48v-95.42c0-25.21,6.89-45.31,20.66-60.31,13.77-15,32.16-22.5,55.15-22.5,5.13,0,11.79.64,19.96,1.93v70.03c-4.55-2.56-8.7-3.85-12.43-3.85-11.91,0-17.86,9.11-17.86,27.31ZM340.05,338.42c-8.91,0-16.13-7.22-16.13-16.13s7.22-16.13,16.13-16.13,16.13,7.22,16.13,16.13-7.22,16.13-16.13,16.13ZM362.19,230.57c-9.22,0-15.56,1.72-19,5.16-3.45,3.45-5.63,10.24-6.57,20.4-3.03,33.73-16.1,57.55-39.22,71.43-12.26,7.24-29.65,10.85-52.18,10.85h-9.11v-69.33h2.98c10.51,0,18.01-2.19,22.5-6.57,4.49-4.38,7.09-12.05,7.79-23.02.93-17.86,2.59-30.4,4.99-37.64,2.39-7.23,7.26-14.42,14.62-21.53,12.84-12.49,30.64-18.74,53.4-18.74h19.79v68.99Z"/>
</svg>