<?xml version="1.0" encoding="UTF-8"?>
<svg id="Layer_1" data-name="Layer 1" xmlns="http://www.w3.org/2000/svg" viewBox="0 0 1001.59 419.48">
  <defs>
    <style>
      .cls-1 {
        fill: #39b54a;
      }

      .cls-2, .cls-3 {
        fill: #fff;
      }

      .cls-3 {
        font-family: Bauhaus93, 'Bauhaus 93';
        font-size: 110.44px;
      }
    </style>
  </defs>
  <rect class="cls-1" x=".79" y="1.01" width="1000" height="417.46"/>
  <path class="cls-2" d="M189.1,102.45c-69.02,0-124.97,55.95-124.97,124.96s55.95,124.96,124.97,124.96,124.96-55.95,124.96-124.96-55.95-124.96-124.96-124.96ZM167.23,231.97v59.81h-47.29v-68.91c0-18.21,4.97-32.73,14.92-43.56,9.95-10.83,23.22-16.25,39.83-16.25,3.71,0,8.51.46,14.42,1.39v50.58c-3.29-1.85-6.28-2.78-8.98-2.78-8.6,0-12.9,6.58-12.9,19.72ZM253.85,291.27c-6.43,0-11.65-5.21-11.65-11.65s5.21-11.65,11.65-11.65,11.65,5.22,11.65,11.65-5.21,11.65-11.65,11.65ZM269.84,213.38c-6.66,0-11.24,1.24-13.72,3.73-2.49,2.49-4.07,7.4-4.74,14.73-2.19,24.36-11.63,41.56-28.32,51.59-8.85,5.23-21.41,7.84-37.68,7.84h-6.58v-50.07h2.15c7.59,0,13-1.58,16.25-4.74,3.24-3.16,5.12-8.7,5.63-16.63.67-12.9,1.87-21.96,3.6-27.19,1.73-5.22,5.25-10.41,10.56-15.55,9.27-9.02,22.13-13.53,38.57-13.53h14.29v49.82Z"/>
  <g>
    <path class="cls-2" d="M361.42,155.44v21.57c-1.4-.79-2.68-1.19-3.83-1.19-3.67,0-5.5,2.8-5.5,8.41v25.51h-20.17v-29.39c0-7.77,2.12-13.96,6.36-18.58,4.24-4.62,9.9-6.93,16.99-6.93,1.58,0,3.63.2,6.15.59Z"/>
    <path class="cls-2" d="M420.2,186.12h-30.58c-.47-1.55-.7-2.97-.7-4.26,0-1.8.32-3.56.97-5.28h10.25c-.72-3.99-2.97-5.99-6.74-5.99-2.52,0-4.57,1.07-6.15,3.21-1.58,2.14-2.37,4.88-2.37,8.22s.76,6.31,2.29,8.47c1.53,2.16,3.53,3.24,6.01,3.24,2.01,0,3.95-1.01,5.82-3.02l11.49,13.81c-5.36,4.21-11.31,6.31-17.85,6.31-7.98,0-14.69-2.68-20.11-8.04-5.43-5.36-8.14-11.99-8.14-19.9s2.74-14.52,8.22-19.95c5.48-5.43,12.21-8.14,20.19-8.14s14.35,2.65,19.66,7.95c5.3,5.3,7.95,11.84,7.95,19.6,0,.79-.07,2.05-.21,3.77Z"/>
    <path class="cls-2" d="M462.26,156.73v21.25c-2.84,0-4.79.53-5.85,1.59-1.06,1.06-1.74,3.15-2.02,6.28-.94,10.39-4.96,17.72-12.08,22-3.78,2.23-9.13,3.34-16.07,3.34h-2.8v-21.35h.92c3.24,0,5.54-.67,6.93-2.02s2.18-3.71,2.4-7.09c.29-5.5.8-9.36,1.54-11.59.74-2.23,2.24-4.44,4.5-6.63,3.95-3.85,9.44-5.77,16.45-5.77h6.09Z"/>
    <path class="cls-2" d="M521.68,186.12h-30.58c-.47-1.55-.7-2.97-.7-4.26,0-1.8.32-3.56.97-5.28h10.25c-.72-3.99-2.97-5.99-6.74-5.99-2.52,0-4.57,1.07-6.15,3.21-1.58,2.14-2.37,4.88-2.37,8.22s.76,6.31,2.29,8.47c1.53,2.16,3.53,3.24,6.01,3.24,2.01,0,3.95-1.01,5.82-3.02l11.49,13.81c-5.36,4.21-11.31,6.31-17.85,6.31-7.98,0-14.69-2.68-20.11-8.04-5.43-5.36-8.14-11.99-8.14-19.9s2.74-14.52,8.22-19.95c5.48-5.43,12.21-8.14,20.19-8.14s14.35,2.65,19.66,7.95c5.3,5.3,7.95,11.84,7.95,19.6,0,.79-.07,2.05-.21,3.77Z"/>
    <path class="cls-2" d="M559.54,155.44v21.57c-1.4-.79-2.68-1.19-3.83-1.19-3.67,0-5.5,2.8-5.5,8.41v25.51h-20.17v-29.39c0-7.77,2.12-13.96,6.36-18.58,4.24-4.62,9.9-6.93,16.99-6.93,1.58,0,3.63.2,6.15.59Z"/>
    <path class="cls-2" d="M605.86,155.97l-25.13,55.87-24.81-55.87h19.25l5.72,14.51,6.25-14.51h18.71Z"/>
    <path class="cls-2" d="M637.89,189.57v20.87c-1.65.29-3.16.43-4.53.43-8.09,0-14.83-2.66-20.22-7.98-5.39-5.32-8.09-11.99-8.09-20.01s2.72-14.42,8.17-19.84c5.45-5.43,12.07-8.14,19.87-8.14,8.7,0,15.56,2.54,20.57,7.63,5.01,5.09,7.52,12.03,7.52,20.84v26.37h-20.17v-24.91c0-2.84-.69-5.1-2.08-6.79-1.38-1.69-3.25-2.53-5.58-2.53-2.12,0-3.96.77-5.5,2.32-1.55,1.55-2.32,3.38-2.32,5.5,0,2.23.7,4.06,2.1,5.5,1.4,1.44,3.18,2.16,5.34,2.16,1.76,0,3.4-.47,4.91-1.4Z"/>
    <path class="cls-2" d="M690.9,136.13v20.6h9.06v21.3h-9.06c0,4.28.67,7.23,2.02,8.84,1.35,1.62,3.82,2.43,7.41,2.43v21.19c-1.04.04-1.82.05-2.32.05-4.57,0-8.87-1.06-12.92-3.18-4.04-2.12-7.29-5-9.73-8.63-3.09-4.64-4.64-10.79-4.64-18.44v-44.16h20.17Z"/>
    <path class="cls-2" d="M730.05,155.97v53.76h-20.17v-53.76h20.17ZM720.02,131.98c2.73,0,5.1.96,7.09,2.89,2,1.92,2.99,4.2,2.99,6.82,0,2.8-.94,5.11-2.83,6.9-1.89,1.8-4.31,2.7-7.25,2.7s-5.37-.9-7.25-2.7c-1.89-1.8-2.83-4.1-2.83-6.9,0-2.62,1-4.9,2.99-6.82,2-1.92,4.36-2.89,7.09-2.89Z"/>
    <path class="cls-2" d="M767.42,154.84c7.62,0,14.16,2.74,19.6,8.22,5.45,5.48,8.17,12.05,8.17,19.71s-2.76,14.38-8.28,19.84c-5.52,5.46-12.18,8.2-19.98,8.2s-14.47-2.74-20.01-8.22c-5.54-5.48-8.3-12.09-8.3-19.82s2.77-14.5,8.3-19.87c5.54-5.37,12.37-8.06,20.49-8.06ZM766.88,174.74c-2.16,0-3.99.78-5.5,2.35-1.51,1.56-2.26,3.48-2.26,5.74s.76,4.13,2.29,5.72c1.53,1.58,3.35,2.37,5.47,2.37s4-.79,5.53-2.37c1.53-1.58,2.29-3.49,2.29-5.72s-.75-4.18-2.26-5.74c-1.51-1.56-3.36-2.35-5.55-2.35Z"/>
    <path class="cls-2" d="M851.54,209.74h-20.17v-30.36c0-3.09-1.28-4.64-3.83-4.64s-3.77,1.55-3.77,4.64v30.36h-20.17v-29.98c0-7.01,2.32-12.92,6.96-17.71,4.64-4.8,10.32-7.2,17.04-7.2,7.69,0,13.86,2.79,18.5,8.36,3.63,4.35,5.45,10.41,5.45,18.17v28.36Z"/>
  </g>
  <text class="cls-3" transform="translate(331.92 305.73)"><tspan x="0" y="0">safari</tspan></text>
</svg>